<mxfile host="app.diagrams.net" agent="Mozilla/5.0 (Windows NT 10.0; Win64; x64) AppleWebKit/537.36 (KHTML, like Gecko) Chrome/129.0.0.0 Safari/537.36" version="24.7.16">
  <diagram name="Page-1" id="JzHgAJIrTBOE7EDhZaoi">
    <mxGraphModel dx="1050" dy="583" grid="1" gridSize="10" guides="1" tooltips="1" connect="1" arrows="1" fold="1" page="1" pageScale="1" pageWidth="850" pageHeight="1100" math="0" shadow="0">
      <root>
        <mxCell id="0" />
        <mxCell id="1" parent="0" />
        <mxCell id="u_U4w3UQabpRIMI6-akV-3" style="edgeStyle=orthogonalEdgeStyle;rounded=0;orthogonalLoop=1;jettySize=auto;html=1;entryX=0;entryY=0.5;entryDx=0;entryDy=0;" edge="1" parent="1" source="u_U4w3UQabpRIMI6-akV-1" target="u_U4w3UQabpRIMI6-akV-2">
          <mxGeometry relative="1" as="geometry" />
        </mxCell>
        <mxCell id="u_U4w3UQabpRIMI6-akV-1" value="&lt;b&gt;Ansible Server&lt;/b&gt;" style="rounded=0;whiteSpace=wrap;html=1;fillColor=#dae8fc;gradientColor=#7ea6e0;strokeColor=#6c8ebf;" vertex="1" parent="1">
          <mxGeometry x="10" y="150" width="120" height="60" as="geometry" />
        </mxCell>
        <mxCell id="u_U4w3UQabpRIMI6-akV-2" value="&lt;b&gt;NODE&lt;/b&gt;" style="rounded=1;whiteSpace=wrap;html=1;fillColor=#d5e8d4;gradientColor=#97d077;strokeColor=#82b366;" vertex="1" parent="1">
          <mxGeometry x="270" y="150" width="120" height="60" as="geometry" />
        </mxCell>
        <mxCell id="u_U4w3UQabpRIMI6-akV-5" style="edgeStyle=orthogonalEdgeStyle;rounded=0;orthogonalLoop=1;jettySize=auto;html=1;entryX=0.5;entryY=0;entryDx=0;entryDy=0;" edge="1" parent="1" source="u_U4w3UQabpRIMI6-akV-4" target="u_U4w3UQabpRIMI6-akV-1">
          <mxGeometry relative="1" as="geometry" />
        </mxCell>
        <mxCell id="u_U4w3UQabpRIMI6-akV-8" style="edgeStyle=orthogonalEdgeStyle;rounded=0;orthogonalLoop=1;jettySize=auto;html=1;entryX=0;entryY=0.5;entryDx=0;entryDy=0;" edge="1" parent="1" source="u_U4w3UQabpRIMI6-akV-4" target="u_U4w3UQabpRIMI6-akV-7">
          <mxGeometry relative="1" as="geometry" />
        </mxCell>
        <mxCell id="u_U4w3UQabpRIMI6-akV-4" value="" style="verticalLabelPosition=bottom;html=1;verticalAlign=top;align=center;strokeColor=none;fillColor=#00BEF2;shape=mxgraph.azure.github_code;pointerEvents=1;" vertex="1" parent="1">
          <mxGeometry x="45" y="10" width="50" height="50" as="geometry" />
        </mxCell>
        <mxCell id="u_U4w3UQabpRIMI6-akV-6" value="&lt;b&gt;IP Address&lt;/b&gt;" style="text;html=1;align=center;verticalAlign=middle;resizable=0;points=[];autosize=1;strokeColor=none;fillColor=none;" vertex="1" parent="1">
          <mxGeometry x="150" y="150" width="90" height="30" as="geometry" />
        </mxCell>
        <mxCell id="u_U4w3UQabpRIMI6-akV-7" value="&lt;b&gt;NODE&lt;/b&gt;" style="rounded=1;whiteSpace=wrap;html=1;fillColor=#fff2cc;gradientColor=#ffd966;strokeColor=#d6b656;" vertex="1" parent="1">
          <mxGeometry x="380" y="5" width="120" height="60" as="geometry" />
        </mxCell>
        <mxCell id="u_U4w3UQabpRIMI6-akV-9" value="&lt;b&gt;install ansible&lt;/b&gt;&lt;div&gt;&lt;b&gt;pull ansible playbooks&lt;/b&gt;&lt;/div&gt;&lt;div&gt;&lt;b&gt;run locally&lt;/b&gt;&lt;/div&gt;" style="text;html=1;align=center;verticalAlign=middle;resizable=0;points=[];autosize=1;strokeColor=none;fillColor=none;" vertex="1" parent="1">
          <mxGeometry x="500" y="5" width="150" height="60" as="geometry" />
        </mxCell>
      </root>
    </mxGraphModel>
  </diagram>
</mxfile>
